<?xml version="1.0" encoding="UTF-8" standalone="no"?><svg xmlns="http://www.w3.org/2000/svg" xmlns:xlink="http://www.w3.org/1999/xlink" contentScriptType="application/ecmascript" contentStyleType="text/css" height="88px" preserveAspectRatio="none" style="width:554px;height:88px;background:#777777;" version="1.1" viewBox="0 0 554 88" width="554px" zoomAndPan="magnify"><defs><filter height="300%" id="fhz6puun078qj" width="300%" x="-1" y="-1"><feGaussianBlur result="blurOut" stdDeviation="2.0"/><feColorMatrix in="blurOut" result="blurOut2" type="matrix" values="0 0 0 0 0 0 0 0 0 0 0 0 0 0 0 0 0 0 .4 0"/><feOffset dx="4.0" dy="4.0" in="blurOut2" result="blurOut3"/><feBlend in="SourceGraphic" in2="blurOut3" mode="normal"/></filter></defs><g><!--MD5=[002e8e2bfd01649225626de164f62fd3]
class PageComponent--><rect codeLine="4" fill="#2E2E2E" filter="url(#fhz6puun078qj)" height="67.9102" id="PageComponent" style="stroke:#1B1B1B;stroke-width:1.5;" width="355" x="7" y="7"/><ellipse cx="134.5" cy="20" fill="#BB6600" rx="8" ry="8" style="stroke:#1B1B1B;stroke-width:1.0;"/><path d="M134.6353,24.4058 Q133.7437,24.4058 132.989,24.1426 Q132.2344,23.8794 131.6919,23.3584 Q131.1494,22.8374 130.8513,22.0586 Q130.5532,21.2798 130.5532,20.2593 Q130.5532,19.3086 130.8379,18.5352 Q131.1226,17.7617 131.665,17.2085 Q132.186,16.6768 132.9568,16.3867 Q133.7275,16.0967 134.6406,16.0967 Q135.1455,16.0967 135.551,16.1531 Q135.9565,16.2095 136.3003,16.3008 Q136.6602,16.4028 136.9529,16.5291 Q137.2456,16.6553 137.4658,16.7627 L137.4658,18.7017 L137.2295,18.7017 Q137.0791,18.5728 136.8508,18.3955 Q136.6226,18.2183 136.3325,18.0464 Q136.0371,17.8745 135.6934,17.7563 Q135.3496,17.6382 134.9575,17.6382 Q134.5225,17.6382 134.1304,17.7751 Q133.7383,17.9121 133.4053,18.229 Q133.0884,18.5352 132.8923,19.04 Q132.6963,19.5449 132.6963,20.2646 Q132.6963,21.0166 132.9084,21.5215 Q133.1206,22.0264 133.4429,22.3164 Q133.7705,22.6118 134.1733,22.738 Q134.5762,22.8643 134.9683,22.8643 Q135.3442,22.8643 135.7122,22.7515 Q136.0801,22.6387 136.3916,22.4453 Q136.6548,22.2896 136.8804,22.1123 Q137.106,21.9351 137.251,21.8062 L137.4658,21.8062 L137.4658,23.7183 Q137.165,23.8525 136.8911,23.9707 Q136.6172,24.0889 136.3164,24.1748 Q135.9243,24.2876 135.5806,24.3467 Q135.2368,24.4058 134.6353,24.4058 Z " fill="#000000"/><text fill="#FFFFFF" font-family="Verdana" font-size="11" lengthAdjust="spacing" textLength="93" x="150.5" y="24.3748">PageComponent</text><line style="stroke:#1B1B1B;stroke-width:1.5;" x1="8" x2="361" y1="33" y2="33"/><rect fill="none" height="6" style="stroke:#C82930;stroke-width:1.0;" width="6" x="15" y="41"/><text fill="#AAAAAA" font-family="sans-serif" font-size="11" lengthAdjust="spacing" textLength="147" x="24" y="47.6348">element: HTMLUListElement</text><line style="stroke:#1B1B1B;stroke-width:1.5;" x1="8" x2="361" y1="53.9551" y2="53.9551"/><ellipse cx="18" cy="64.9551" fill="#84BE84" rx="3" ry="3" style="stroke:#038048;stroke-width:1.0;"/><text fill="#AAAAAA" font-family="sans-serif" font-size="11" lengthAdjust="spacing" textLength="332" x="24" y="68.5898">attachTo(parent: HTMLElement, position?: InsertPosition): void</text><!--MD5=[335f4d9be48430461c68bf6d6fdba145]
class App--><rect codeLine="8" fill="#2E2E2E" filter="url(#fhz6puun078qj)" height="54.9551" id="App" style="stroke:#1B1B1B;stroke-width:1.5;" width="143" x="397" y="13.5"/><ellipse cx="454" cy="26.5" fill="#BB6600" rx="8" ry="8" style="stroke:#1B1B1B;stroke-width:1.0;"/><path d="M454.1353,30.9058 Q453.2437,30.9058 452.489,30.6426 Q451.7344,30.3794 451.1919,29.8584 Q450.6494,29.3374 450.3513,28.5586 Q450.0532,27.7798 450.0532,26.7593 Q450.0532,25.8086 450.3379,25.0352 Q450.6226,24.2617 451.165,23.7085 Q451.686,23.1768 452.4568,22.8867 Q453.2275,22.5967 454.1406,22.5967 Q454.6455,22.5967 455.051,22.6531 Q455.4565,22.7095 455.8003,22.8008 Q456.1602,22.9028 456.4529,23.0291 Q456.7456,23.1553 456.9658,23.2627 L456.9658,25.2017 L456.7295,25.2017 Q456.5791,25.0728 456.3508,24.8955 Q456.1226,24.7183 455.8325,24.5464 Q455.5371,24.3745 455.1934,24.2563 Q454.8496,24.1382 454.4575,24.1382 Q454.0225,24.1382 453.6304,24.2751 Q453.2383,24.4121 452.9053,24.729 Q452.5884,25.0352 452.3923,25.54 Q452.1963,26.0449 452.1963,26.7646 Q452.1963,27.5166 452.4084,28.0215 Q452.6206,28.5264 452.9429,28.8164 Q453.2705,29.1118 453.6733,29.238 Q454.0762,29.3643 454.4683,29.3643 Q454.8442,29.3643 455.2122,29.2515 Q455.5801,29.1387 455.8916,28.9453 Q456.1548,28.7896 456.3804,28.6123 Q456.606,28.4351 456.751,28.3062 L456.9658,28.3062 L456.9658,30.2183 Q456.665,30.3525 456.3911,30.4707 Q456.1172,30.5889 455.8164,30.6748 Q455.4243,30.7876 455.0806,30.8467 Q454.7368,30.9058 454.1353,30.9058 Z " fill="#000000"/><text fill="#FFFFFF" font-family="Verdana" font-size="11" lengthAdjust="spacing" textLength="22" x="470" y="30.8748">App</text><line style="stroke:#1B1B1B;stroke-width:1.5;" x1="398" x2="539" y1="39.5" y2="39.5"/><rect fill="none" height="6" style="stroke:#C82930;stroke-width:1.0;" width="6" x="405" y="47.5"/><text fill="#AAAAAA" font-family="sans-serif" font-size="11" lengthAdjust="spacing" textLength="120" x="414" y="54.1348">page: PageComponent</text><line style="stroke:#1B1B1B;stroke-width:1.5;" x1="398" x2="539" y1="60.4551" y2="60.4551"/><!--MD5=[04f98592032ba1f75042981cdf3421f9]
@startuml
!define DARKORANGE
!include https://raw.githubusercontent.com/Drakemor/RedDress-PlantUML/master/style.puml

class PageComponent {
    -element: HTMLUListElement
    +attachTo(parent: HTMLElement, position?: InsertPosition): void
}
class App {
    -page: PageComponent
}
@enduml

@startuml









skinparam stereotypeCBackgroundColor BB6600



skinparam backgroundColor 777







skinparam circledCharacter {
  radius 8
  fontSize 11
  fontName Verdana
}

skinparam class {
    backgroundColor 2e2e2e
  borderColor 1b1b1b
    fontColor fff
  fontName Verdana
  fontSize 11
  stereotypeFontColor aaa
  stereotypeFontSize 11
    arrowColor fff
  arrowFontName Verdana
  arrowFontColor bbb
  arrowFontSize 11

  attributeFontColor aaa
  attributeFontSize 11
  attributeIconSize 11
}


skinparam actor {
    backgroundColor BB6600
  borderColor 662200
    fontColor fff
  fontName Verdana
  fontSize 11
  stereotypeFontColor aaa
  stereotypeFontSize 11
}

skinparam participant {
    backgroundColor 2e2e2e
  borderColor 1b1b1b
    fontColor fff
  fontName Verdana
  fontSize 11
  stereotypeFontColor aaa
  stereotypeFontSize 11
}

skinparam collections {
    backgroundColor 2e2e2e
  borderColor 1b1b1b
    fontColor fff
  fontName Verdana
  fontSize 11
  stereotypeFontColor aaa
  stereotypeFontSize 11
}

skinparam SequenceBox{
    backgroundColor 575757
  borderColor 767676
    fontColor fff
  fontName Verdana
  fontSize 11
  stereotypeFontColor aaa
  stereotypeFontSize 11
}


skinparam interface {
    backgroundColor BB6600
  borderColor 662200
    fontColor fff
  fontName Verdana
  fontSize 11
  stereotypeFontColor aaa
  stereotypeFontSize 11
}

skinparam component {
    backgroundColor 2e2e2e
  borderColor 1b1b1b
    fontColor fff
  fontName Verdana
  fontSize 11
  stereotypeFontColor aaa
  stereotypeFontSize 11
}

skinparam node {
    backgroundColor 2e2e2e
  borderColor 1b1b1b
    fontColor fff
  fontName Verdana
  fontSize 11
  stereotypeFontColor aaa
  stereotypeFontSize 11
}

skinparam database {
    backgroundColor 2e2e2e
  borderColor 1b1b1b
    fontColor fff
  fontName Verdana
  fontSize 11
  stereotypeFontColor aaa
  stereotypeFontSize 11
}

skinparam queue {
    backgroundColor 2e2e2e
  borderColor 1b1b1b
    fontColor fff
  fontName Verdana
  fontSize 11
  stereotypeFontColor aaa
  stereotypeFontSize 11
}


skinparam usecase {
    backgroundColor 2e2e2e
  borderColor 1b1b1b
    fontColor fff
  fontName Verdana
  fontSize 11
  stereotypeFontColor aaa
  stereotypeFontSize 11
    arrowColor fff
  arrowFontName Verdana
  arrowFontColor bbb
  arrowFontSize 11
}

skinparam activity {
    backgroundColor 2e2e2e
  borderColor 1b1b1b
    fontColor fff
  fontName Verdana
  fontSize 11
  stereotypeFontColor aaa
  stereotypeFontSize 11
    arrowColor fff
  arrowFontName Verdana
  arrowFontColor bbb
  arrowFontSize 11
}

skinparam sequence {
    fontColor fff
  fontName Verdana
  fontSize 11
  stereotypeFontColor aaa
  stereotypeFontSize 11
    arrowColor fff
  arrowFontName Verdana
  arrowFontColor bbb
  arrowFontSize 11

  lifeLineBorderColor BB6600
  lifeLineBackgroundColor 575757
}

skinparam boundary {
    backgroundColor BB6600
  borderColor 662200
    fontColor fff
  fontName Verdana
  fontSize 11
  stereotypeFontColor aaa
  stereotypeFontSize 11
}

skinparam control {
    backgroundColor BB6600
  borderColor 662200
    fontColor fff
  fontName Verdana
  fontSize 11
  stereotypeFontColor aaa
  stereotypeFontSize 11
}

skinparam entity {
    backgroundColor BB6600
  borderColor 662200
    fontColor fff
  fontName Verdana
  fontSize 11
  stereotypeFontColor aaa
  stereotypeFontSize 11
}


skinparam state {
    backgroundColor 2e2e2e
  borderColor 1b1b1b
    fontColor fff
  fontName Verdana
  fontSize 11
  stereotypeFontColor aaa
  stereotypeFontSize 11
    arrowColor fff
  arrowFontName Verdana
  arrowFontColor bbb
  arrowFontSize 11
  startColor BB6600
  endColor 662200
}


skinparam object {
    backgroundColor 2e2e2e
  borderColor 1b1b1b
    fontColor fff
  fontName Verdana
  fontSize 11
  stereotypeFontColor aaa
  stereotypeFontSize 11
    arrowColor fff
  arrowFontName Verdana
  arrowFontColor bbb
  arrowFontSize 11
}


skinparam note {
    backgroundColor BB6600
  borderColor 662200
    fontColor fff
  fontName Verdana
  fontSize 11
  stereotypeFontColor aaa
  stereotypeFontSize 11
}

skinparam cloud {
    backgroundColor 2e2e2e
  borderColor 1b1b1b
    fontColor fff
  fontName Verdana
  fontSize 11
  stereotypeFontColor aaa
  stereotypeFontSize 11
    arrowColor fff
  arrowFontName Verdana
  arrowFontColor bbb
  arrowFontSize 11
}

skinparam rectangle {
    backgroundColor 2e2e2e
  borderColor 1b1b1b
    fontColor fff
  fontName Verdana
  fontSize 11
  stereotypeFontColor aaa
  stereotypeFontSize 11
}

skinparam storage {
    backgroundColor 2e2e2e
  borderColor 1b1b1b
    fontColor fff
  fontName Verdana
  fontSize 11
  stereotypeFontColor aaa
  stereotypeFontSize 11
}


class PageComponent {
    -element: HTMLUListElement
    +attachTo(parent: HTMLElement, position?: InsertPosition): void
}
class App {
    -page: PageComponent
}
@enduml

PlantUML version 1.2021.00(Sun Jan 10 19:25:05 KST 2021)
(GPL source distribution)
Java Runtime: OpenJDK Runtime Environment
JVM: OpenJDK 64-Bit Server VM
Default Encoding: UTF-8
Language: en
Country: AU
--></g></svg>