<?xml version="1.0" encoding="UTF-8" standalone="no"?><svg xmlns="http://www.w3.org/2000/svg" xmlns:xlink="http://www.w3.org/1999/xlink" contentScriptType="application/ecmascript" contentStyleType="text/css" height="203px" preserveAspectRatio="none" style="width:766px;height:203px;background:#777777;" version="1.1" viewBox="0 0 766 203" width="766px" zoomAndPan="magnify"><defs><filter height="300%" id="f3p5h217vdd7u" width="300%" x="-1" y="-1"><feGaussianBlur result="blurOut" stdDeviation="2.0"/><feColorMatrix in="blurOut" result="blurOut2" type="matrix" values="0 0 0 0 0 0 0 0 0 0 0 0 0 0 0 0 0 0 .4 0"/><feOffset dx="4.0" dy="4.0" in="blurOut2" result="blurOut3"/><feBlend in="SourceGraphic" in2="blurOut3" mode="normal"/></filter></defs><g><!--MD5=[2ef76b0ddb2775e9b53b31b61ce34193]
class ImageComponent--><rect codeLine="4" fill="#2E2E2E" filter="url(#f3p5h217vdd7u)" height="67.9102" id="ImageComponent" style="stroke:#1B1B1B;stroke-width:1.5;" width="355" x="7" y="7"/><ellipse cx="130" cy="20" fill="#BB6600" rx="8" ry="8" style="stroke:#1B1B1B;stroke-width:1.0;"/><path d="M130.1353,24.4058 Q129.2437,24.4058 128.489,24.1426 Q127.7344,23.8794 127.1919,23.3584 Q126.6494,22.8374 126.3513,22.0586 Q126.0532,21.2798 126.0532,20.2593 Q126.0532,19.3086 126.3379,18.5352 Q126.6226,17.7617 127.165,17.2085 Q127.686,16.6768 128.4568,16.3867 Q129.2275,16.0967 130.1406,16.0967 Q130.6455,16.0967 131.051,16.1531 Q131.4565,16.2095 131.8003,16.3008 Q132.1602,16.4028 132.4529,16.5291 Q132.7456,16.6553 132.9658,16.7627 L132.9658,18.7017 L132.7295,18.7017 Q132.5791,18.5728 132.3508,18.3955 Q132.1226,18.2183 131.8325,18.0464 Q131.5371,17.8745 131.1934,17.7563 Q130.8496,17.6382 130.4575,17.6382 Q130.0225,17.6382 129.6304,17.7751 Q129.2383,17.9121 128.9053,18.229 Q128.5884,18.5352 128.3923,19.04 Q128.1963,19.5449 128.1963,20.2646 Q128.1963,21.0166 128.4084,21.5215 Q128.6206,22.0264 128.9429,22.3164 Q129.2705,22.6118 129.6733,22.738 Q130.0762,22.8643 130.4683,22.8643 Q130.8442,22.8643 131.2122,22.7515 Q131.5801,22.6387 131.8916,22.4453 Q132.1548,22.2896 132.3804,22.1123 Q132.606,21.9351 132.751,21.8062 L132.9658,21.8062 L132.9658,23.7183 Q132.665,23.8525 132.3911,23.9707 Q132.1172,24.0889 131.8164,24.1748 Q131.4243,24.2876 131.0806,24.3467 Q130.7368,24.4058 130.1353,24.4058 Z " fill="#000000"/><text fill="#FFFFFF" font-family="Verdana" font-size="11" lengthAdjust="spacing" textLength="102" x="146" y="24.3748">ImageComponent</text><line style="stroke:#1B1B1B;stroke-width:1.5;" x1="8" x2="361" y1="33" y2="33"/><rect fill="none" height="6" style="stroke:#C82930;stroke-width:1.0;" width="6" x="15" y="41"/><text fill="#AAAAAA" font-family="sans-serif" font-size="11" lengthAdjust="spacing" textLength="120" x="24" y="47.6348">element: HTMLElement</text><line style="stroke:#1B1B1B;stroke-width:1.5;" x1="8" x2="361" y1="53.9551" y2="53.9551"/><ellipse cx="18" cy="64.9551" fill="#84BE84" rx="3" ry="3" style="stroke:#038048;stroke-width:1.0;"/><text fill="#AAAAAA" font-family="sans-serif" font-size="11" lengthAdjust="spacing" textLength="332" x="24" y="68.5898">attachTo(parent: HTMLElement, position?: InsertPosition): void</text><!--MD5=[002e8e2bfd01649225626de164f62fd3]
class PageComponent--><rect codeLine="8" fill="#2E2E2E" filter="url(#f3p5h217vdd7u)" height="67.9102" id="PageComponent" style="stroke:#1B1B1B;stroke-width:1.5;" width="355" x="397" y="7"/><ellipse cx="524.5" cy="20" fill="#BB6600" rx="8" ry="8" style="stroke:#1B1B1B;stroke-width:1.0;"/><path d="M524.6353,24.4058 Q523.7437,24.4058 522.989,24.1426 Q522.2344,23.8794 521.6919,23.3584 Q521.1494,22.8374 520.8513,22.0586 Q520.5532,21.2798 520.5532,20.2593 Q520.5532,19.3086 520.8379,18.5352 Q521.1226,17.7617 521.665,17.2085 Q522.186,16.6768 522.9568,16.3867 Q523.7275,16.0967 524.6406,16.0967 Q525.1455,16.0967 525.551,16.1531 Q525.9565,16.2095 526.3003,16.3008 Q526.6602,16.4028 526.9529,16.5291 Q527.2456,16.6553 527.4658,16.7627 L527.4658,18.7017 L527.2295,18.7017 Q527.0791,18.5728 526.8508,18.3955 Q526.6226,18.2183 526.3325,18.0464 Q526.0371,17.8745 525.6934,17.7563 Q525.3496,17.6382 524.9575,17.6382 Q524.5225,17.6382 524.1304,17.7751 Q523.7383,17.9121 523.4053,18.229 Q523.0884,18.5352 522.8923,19.04 Q522.6963,19.5449 522.6963,20.2646 Q522.6963,21.0166 522.9084,21.5215 Q523.1206,22.0264 523.4429,22.3164 Q523.7705,22.6118 524.1733,22.738 Q524.5762,22.8643 524.9683,22.8643 Q525.3442,22.8643 525.7122,22.7515 Q526.0801,22.6387 526.3916,22.4453 Q526.6548,22.2896 526.8804,22.1123 Q527.106,21.9351 527.251,21.8062 L527.4658,21.8062 L527.4658,23.7183 Q527.165,23.8525 526.8911,23.9707 Q526.6172,24.0889 526.3164,24.1748 Q525.9243,24.2876 525.5806,24.3467 Q525.2368,24.4058 524.6353,24.4058 Z " fill="#000000"/><text fill="#FFFFFF" font-family="Verdana" font-size="11" lengthAdjust="spacing" textLength="93" x="540.5" y="24.3748">PageComponent</text><line style="stroke:#1B1B1B;stroke-width:1.5;" x1="398" x2="751" y1="33" y2="33"/><rect fill="none" height="6" style="stroke:#C82930;stroke-width:1.0;" width="6" x="405" y="41"/><text fill="#AAAAAA" font-family="sans-serif" font-size="11" lengthAdjust="spacing" textLength="147" x="414" y="47.6348">element: HTMLUListElement</text><line style="stroke:#1B1B1B;stroke-width:1.5;" x1="398" x2="751" y1="53.9551" y2="53.9551"/><ellipse cx="408" cy="64.9551" fill="#84BE84" rx="3" ry="3" style="stroke:#038048;stroke-width:1.0;"/><text fill="#AAAAAA" font-family="sans-serif" font-size="11" lengthAdjust="spacing" textLength="332" x="414" y="68.5898">attachTo(parent: HTMLElement, position?: InsertPosition): void</text><!--MD5=[335f4d9be48430461c68bf6d6fdba145]
class App--><rect codeLine="12" fill="#2E2E2E" filter="url(#f3p5h217vdd7u)" height="54.9551" id="App" style="stroke:#1B1B1B;stroke-width:1.5;" width="143" x="113" y="135"/><ellipse cx="170" cy="148" fill="#BB6600" rx="8" ry="8" style="stroke:#1B1B1B;stroke-width:1.0;"/><path d="M170.1353,152.4058 Q169.2437,152.4058 168.489,152.1426 Q167.7344,151.8794 167.1919,151.3584 Q166.6494,150.8374 166.3513,150.0586 Q166.0532,149.2798 166.0532,148.2593 Q166.0532,147.3086 166.3379,146.5352 Q166.6226,145.7617 167.165,145.2085 Q167.686,144.6768 168.4568,144.3867 Q169.2275,144.0967 170.1406,144.0967 Q170.6455,144.0967 171.051,144.1531 Q171.4565,144.2095 171.8003,144.3008 Q172.1602,144.4028 172.4529,144.5291 Q172.7456,144.6553 172.9658,144.7627 L172.9658,146.7017 L172.7295,146.7017 Q172.5791,146.5728 172.3508,146.3955 Q172.1226,146.2183 171.8325,146.0464 Q171.5371,145.8745 171.1934,145.7563 Q170.8496,145.6382 170.4575,145.6382 Q170.0225,145.6382 169.6304,145.7751 Q169.2383,145.9121 168.9053,146.229 Q168.5884,146.5352 168.3923,147.04 Q168.1963,147.5449 168.1963,148.2646 Q168.1963,149.0166 168.4084,149.5215 Q168.6206,150.0264 168.9429,150.3164 Q169.2705,150.6118 169.6733,150.738 Q170.0762,150.8643 170.4683,150.8643 Q170.8442,150.8643 171.2122,150.7515 Q171.5801,150.6387 171.8916,150.4453 Q172.1548,150.2896 172.3804,150.1123 Q172.606,149.9351 172.751,149.8062 L172.9658,149.8062 L172.9658,151.7183 Q172.665,151.8525 172.3911,151.9707 Q172.1172,152.0889 171.8164,152.1748 Q171.4243,152.2876 171.0806,152.3467 Q170.7368,152.4058 170.1353,152.4058 Z " fill="#000000"/><text fill="#FFFFFF" font-family="Verdana" font-size="11" lengthAdjust="spacing" textLength="22" x="186" y="152.3748">App</text><line style="stroke:#1B1B1B;stroke-width:1.5;" x1="114" x2="255" y1="161" y2="161"/><rect fill="none" height="6" style="stroke:#C82930;stroke-width:1.0;" width="6" x="121" y="169"/><text fill="#AAAAAA" font-family="sans-serif" font-size="11" lengthAdjust="spacing" textLength="120" x="130" y="175.6348">page: PageComponent</text><line style="stroke:#1B1B1B;stroke-width:1.5;" x1="114" x2="255" y1="181.9551" y2="181.9551"/><!--MD5=[e1fb39b7ae35a04293f9798651456cee]
link ImageComponent to PageComponent--><!--MD5=[accfe6b781a94bc0c3bf1d3c4f51bbb6]
link ImageComponent to App--><!--MD5=[c56aa60be60a17c193f25e0697c21839]
@startuml
!define DARKORANGE
!include https://raw.githubusercontent.com/Drakemor/RedDress-PlantUML/master/style.puml

class ImageComponent {
    -element: HTMLElement
    +attachTo(parent: HTMLElement, position?: InsertPosition): void
}
class PageComponent {
    -element: HTMLUListElement
    +attachTo(parent: HTMLElement, position?: InsertPosition): void
}
class App {
    -page: PageComponent
}
@enduml

@startuml









skinparam stereotypeCBackgroundColor BB6600



skinparam backgroundColor 777







skinparam circledCharacter {
  radius 8
  fontSize 11
  fontName Verdana
}

skinparam class {
    backgroundColor 2e2e2e
  borderColor 1b1b1b
    fontColor fff
  fontName Verdana
  fontSize 11
  stereotypeFontColor aaa
  stereotypeFontSize 11
    arrowColor fff
  arrowFontName Verdana
  arrowFontColor bbb
  arrowFontSize 11

  attributeFontColor aaa
  attributeFontSize 11
  attributeIconSize 11
}


skinparam actor {
    backgroundColor BB6600
  borderColor 662200
    fontColor fff
  fontName Verdana
  fontSize 11
  stereotypeFontColor aaa
  stereotypeFontSize 11
}

skinparam participant {
    backgroundColor 2e2e2e
  borderColor 1b1b1b
    fontColor fff
  fontName Verdana
  fontSize 11
  stereotypeFontColor aaa
  stereotypeFontSize 11
}

skinparam collections {
    backgroundColor 2e2e2e
  borderColor 1b1b1b
    fontColor fff
  fontName Verdana
  fontSize 11
  stereotypeFontColor aaa
  stereotypeFontSize 11
}

skinparam SequenceBox{
    backgroundColor 575757
  borderColor 767676
    fontColor fff
  fontName Verdana
  fontSize 11
  stereotypeFontColor aaa
  stereotypeFontSize 11
}


skinparam interface {
    backgroundColor BB6600
  borderColor 662200
    fontColor fff
  fontName Verdana
  fontSize 11
  stereotypeFontColor aaa
  stereotypeFontSize 11
}

skinparam component {
    backgroundColor 2e2e2e
  borderColor 1b1b1b
    fontColor fff
  fontName Verdana
  fontSize 11
  stereotypeFontColor aaa
  stereotypeFontSize 11
}

skinparam node {
    backgroundColor 2e2e2e
  borderColor 1b1b1b
    fontColor fff
  fontName Verdana
  fontSize 11
  stereotypeFontColor aaa
  stereotypeFontSize 11
}

skinparam database {
    backgroundColor 2e2e2e
  borderColor 1b1b1b
    fontColor fff
  fontName Verdana
  fontSize 11
  stereotypeFontColor aaa
  stereotypeFontSize 11
}

skinparam queue {
    backgroundColor 2e2e2e
  borderColor 1b1b1b
    fontColor fff
  fontName Verdana
  fontSize 11
  stereotypeFontColor aaa
  stereotypeFontSize 11
}


skinparam usecase {
    backgroundColor 2e2e2e
  borderColor 1b1b1b
    fontColor fff
  fontName Verdana
  fontSize 11
  stereotypeFontColor aaa
  stereotypeFontSize 11
    arrowColor fff
  arrowFontName Verdana
  arrowFontColor bbb
  arrowFontSize 11
}

skinparam activity {
    backgroundColor 2e2e2e
  borderColor 1b1b1b
    fontColor fff
  fontName Verdana
  fontSize 11
  stereotypeFontColor aaa
  stereotypeFontSize 11
    arrowColor fff
  arrowFontName Verdana
  arrowFontColor bbb
  arrowFontSize 11
}

skinparam sequence {
    fontColor fff
  fontName Verdana
  fontSize 11
  stereotypeFontColor aaa
  stereotypeFontSize 11
    arrowColor fff
  arrowFontName Verdana
  arrowFontColor bbb
  arrowFontSize 11

  lifeLineBorderColor BB6600
  lifeLineBackgroundColor 575757
}

skinparam boundary {
    backgroundColor BB6600
  borderColor 662200
    fontColor fff
  fontName Verdana
  fontSize 11
  stereotypeFontColor aaa
  stereotypeFontSize 11
}

skinparam control {
    backgroundColor BB6600
  borderColor 662200
    fontColor fff
  fontName Verdana
  fontSize 11
  stereotypeFontColor aaa
  stereotypeFontSize 11
}

skinparam entity {
    backgroundColor BB6600
  borderColor 662200
    fontColor fff
  fontName Verdana
  fontSize 11
  stereotypeFontColor aaa
  stereotypeFontSize 11
}


skinparam state {
    backgroundColor 2e2e2e
  borderColor 1b1b1b
    fontColor fff
  fontName Verdana
  fontSize 11
  stereotypeFontColor aaa
  stereotypeFontSize 11
    arrowColor fff
  arrowFontName Verdana
  arrowFontColor bbb
  arrowFontSize 11
  startColor BB6600
  endColor 662200
}


skinparam object {
    backgroundColor 2e2e2e
  borderColor 1b1b1b
    fontColor fff
  fontName Verdana
  fontSize 11
  stereotypeFontColor aaa
  stereotypeFontSize 11
    arrowColor fff
  arrowFontName Verdana
  arrowFontColor bbb
  arrowFontSize 11
}


skinparam note {
    backgroundColor BB6600
  borderColor 662200
    fontColor fff
  fontName Verdana
  fontSize 11
  stereotypeFontColor aaa
  stereotypeFontSize 11
}

skinparam cloud {
    backgroundColor 2e2e2e
  borderColor 1b1b1b
    fontColor fff
  fontName Verdana
  fontSize 11
  stereotypeFontColor aaa
  stereotypeFontSize 11
    arrowColor fff
  arrowFontName Verdana
  arrowFontColor bbb
  arrowFontSize 11
}

skinparam rectangle {
    backgroundColor 2e2e2e
  borderColor 1b1b1b
    fontColor fff
  fontName Verdana
  fontSize 11
  stereotypeFontColor aaa
  stereotypeFontSize 11
}

skinparam storage {
    backgroundColor 2e2e2e
  borderColor 1b1b1b
    fontColor fff
  fontName Verdana
  fontSize 11
  stereotypeFontColor aaa
  stereotypeFontSize 11
}


class ImageComponent {
    -element: HTMLElement
    +attachTo(parent: HTMLElement, position?: InsertPosition): void
}
class PageComponent {
    -element: HTMLUListElement
    +attachTo(parent: HTMLElement, position?: InsertPosition): void
}
class App {
    -page: PageComponent
}
@enduml

PlantUML version 1.2021.00(Sun Jan 10 19:25:05 KST 2021)
(GPL source distribution)
Java Runtime: OpenJDK Runtime Environment
JVM: OpenJDK 64-Bit Server VM
Default Encoding: UTF-8
Language: en
Country: AU
--></g></svg>